<svg width="174" height="128" viewBox="0 0 174 128" fill="none" xmlns="http://www.w3.org/2000/svg">
<path fill-rule="evenodd" clip-rule="evenodd" d="M65.9601 0.0941375C50.3982 0.804408 28.3304 3.70258 7.25562 7.80388C4.69425 8.30241 4.36973 8.37891 4.4552 8.46436C4.48582 8.49492 5.60332 8.34302 6.93861 8.12684C13.4677 7.06936 24.0863 5.6533 31.6609 4.82991C35.9517 4.36355 42.198 3.76761 42.6763 3.77893C42.8576 3.78329 41.4625 4.05016 39.5761 4.37212C32.2025 5.63036 24.9609 7.15797 18.0731 8.90784C12.0058 10.4493 4.82036 12.5583 4.48529 12.8961C4.3969 12.9852 4.4403 13.004 4.6172 12.9533C8.69714 11.7829 19.0932 9.39902 26.1862 8.00761C39.6096 5.37419 51.216 3.89496 65.6963 2.97203C69.2262 2.74708 82.8334 2.65901 86.9357 2.83462C112.073 3.91092 133.852 8.97106 152.764 18.1292C158.213 20.768 164.203 24.3253 168.396 27.4134C169.661 28.3448 172.354 30.5293 172.354 30.624C172.354 30.6523 172.012 30.4561 171.595 30.1885C167.005 27.2427 164.147 25.5034 161.405 23.9853C149.495 17.3933 136.495 12.3033 122.95 8.92833C103.618 4.11172 82.4468 2.67325 60.6833 4.69766C48.0753 5.87047 35.1458 8.28186 23.6743 11.5999C19.7985 12.7208 11.1199 15.6406 8.07599 16.8474C5.6086 17.8258 1.83145 19.6407 0.659601 20.4109L0 20.8444L3.61251 20.9177L11.2386 19.2614C15.4328 18.3504 19.102 17.4962 19.3923 17.363C20.1508 17.0149 24.2623 15.6371 27.1096 14.7769C39.7521 10.9575 54.2143 8.23409 68.005 7.07569C74.3749 6.54065 76.2418 6.47275 84.5609 6.47315C94.0576 6.47355 97.9738 6.68885 106.262 7.66637C127.81 10.2078 148.78 17.1046 166.682 27.5379C167.806 28.1934 169.87 29.4325 171.268 30.2916C172.666 31.1508 173.882 31.8527 173.972 31.8511C174.483 31.8426 167.855 26.5895 163.713 23.7191C147.124 12.2247 126.409 4.86353 102.964 2.1308C99.7708 1.75873 96.8402 1.49359 92.6576 1.19851C91.0884 1.08776 87.1107 0.760898 83.819 0.471886C78.1022 -0.0298006 77.6193 -0.0524787 73.0836 -0.0338879C70.4718 -0.0230763 67.2663 0.03441 65.9601 0.0941375ZM43.6327 3.72526C43.5421 3.76192 43.3936 3.76192 43.3028 3.72526C43.2122 3.68875 43.2863 3.65881 43.4678 3.65881C43.6492 3.65881 43.7233 3.68875 43.6327 3.72526Z" fill="#00996B"/>
<path d="M77.5031 12.0231C73.6904 12.2831 71.3452 12.5718 69.4171 13.0187L68.2574 13.2877L67.1972 14.8691C66.6142 15.7389 66.1611 16.4745 66.1903 16.5037C66.2195 16.5329 67.2778 16.4111 68.5421 16.2331C74.5097 15.3928 79.9711 14.9042 87.8199 14.5083L89.4956 14.4238L90.9569 12.4834L90.5293 12.4118C88.9265 12.1433 79.7538 11.8697 77.5031 12.0231Z" fill="#00996B"/>
<path d="M104.024 14.7061C103.731 15.1372 103.492 15.5458 103.492 15.6141C103.492 15.6865 104.909 15.7721 106.889 15.8193C114.467 15.9999 118.567 16.3167 121.35 16.9365L122.461 17.1838L122.838 16.8833C123.045 16.7181 123.184 16.5539 123.148 16.5187C123.038 16.4117 118.586 15.4112 116.618 15.0513C112.84 14.3605 108.788 13.9222 106.18 13.9222H104.557L104.024 14.7061Z" fill="#00996B"/>
<path d="M51.7129 15.9171C48.0082 16.5879 43.9661 17.5391 40.3018 18.6025C36.4309 19.7259 29.6679 22.0729 25.9225 23.5929L24.8011 24.0479L23.9158 26.072C23.4289 27.1853 23.0777 28.1125 23.1351 28.1327C23.1926 28.1528 24.3033 27.745 25.6035 27.2267C32.9715 24.2888 40.4106 21.9012 49.438 19.5769C49.8714 19.4653 50.0992 19.2262 51.2519 17.6723C51.9771 16.6951 52.5704 15.8668 52.5704 15.8318C52.5704 15.7595 52.5978 15.7568 51.7129 15.9171Z" fill="#00996B"/>
<path d="M133.768 20.0454L135.087 20.2102C138.078 20.584 141.039 21.431 144.761 22.9774C145.897 23.4497 146.99 23.9025 147.189 23.9835C147.465 24.0967 147.588 24.0921 147.716 23.9638C147.94 23.7394 147.605 23.4917 145.838 22.5743C142.889 21.043 139.575 19.8921 136.317 19.2677L135.438 19.099L133.768 20.0454Z" fill="#00996B"/>
<path d="M87.793 23.5601C62.1129 24.5483 36.9725 30.6507 14.4454 41.3639L12.7964 42.148L11.3644 44.6562C10.5769 46.0357 9.95355 47.183 9.97928 47.2053C10.005 47.228 10.9463 46.6908 12.0709 46.0116C14.4722 44.5617 19.3854 42.0489 22.5585 40.6477C39.7672 33.0494 60.27 28.4199 82.5162 27.1094C85.6007 26.9278 93.0343 26.7119 95.5767 26.7302C97.4146 26.7435 97.5275 26.7569 96.698 26.8623C88.193 27.9436 79.3266 30.1396 71.5057 33.1024C68.4836 34.2471 68.4577 34.3247 71.3691 33.51C72.3122 33.246 74.6866 32.7094 76.6461 32.3177C85.1608 30.6145 94.2453 29.4984 105.141 28.8164C107.969 28.6393 121.645 28.5243 119.85 28.6926C115.959 29.0577 111.637 29.7676 108.307 30.589C105.015 31.4007 100.794 32.7488 101.472 32.7715C101.559 32.7743 102.42 32.6611 103.385 32.5198C114.493 30.8934 127.428 30.6979 139.506 31.9743C140.776 32.1084 142.022 32.2266 142.277 32.2369C143.405 32.2829 150.92 33.5385 155.468 34.4411C159.112 35.1643 165.105 36.5498 167.34 37.1856C169.11 37.6895 169.666 37.8008 169.441 37.6078C169.256 37.449 164.96 35.751 162.394 34.8227C139.94 26.6988 112.78 22.5982 87.793 23.5601Z" fill="#017991"/>
<path d="M157.784 27.3626C157.551 27.6211 157.553 27.6312 157.875 27.7536C158.057 27.8228 158.435 27.9414 158.717 28.0176C159.598 28.2561 162.182 29.2773 164.211 30.1877C165.283 30.669 166.247 31.0627 166.355 31.0627C167.545 31.0627 163.373 28.7603 160.411 27.783C158.238 27.0658 158.077 27.0401 157.784 27.3626Z" fill="#00996B"/>
<path d="M42.7423 40.2377C37.9883 40.9736 34.0951 42.7912 31.3312 45.5649C29.5546 47.3477 28.2302 49.5805 27.6158 51.8289C27.3691 52.7311 27.3266 53.2368 27.3214 55.323C27.3157 57.6378 27.3336 57.8159 27.6736 58.817C28.4093 60.9835 29.7038 62.797 31.6955 64.4522C32.3297 64.9792 35.0448 66.888 37.7293 68.6946C43.8103 72.7866 44.8023 73.5195 46.3862 75.0924C48.1619 76.8555 48.7447 78.1286 48.7447 80.2425C48.7447 82.3374 48.0322 83.9881 46.4376 85.588C45.6189 86.4091 45.1112 86.7859 44.1852 87.2622C41.7925 88.4923 39.0784 88.9837 36.1881 88.7102C29.8913 88.1145 26.8286 85.1104 25.9884 78.7046C25.8796 77.8748 25.7906 76.547 25.7906 75.753V74.3092H24.6781C23.7342 74.3092 23.5548 74.3442 23.4932 74.5404C23.4533 74.6665 23.088 76.7883 22.6812 79.2537C21.8393 84.3571 21.812 85.0688 22.4083 86.3703C22.655 86.9091 23.0718 87.4474 23.7819 88.1431C26.6886 90.9919 32.9457 92.6362 39.3491 92.2343C45.6036 91.8414 51.0439 89.7363 54.559 86.35C57.6708 83.3516 59.0401 80.2184 59.0322 76.1125C59.0266 73.1513 58.045 71.0605 55.5216 68.6363C53.8688 67.0483 52.9193 66.3582 46.9638 62.4178C41.5124 58.811 39.9003 57.6436 38.4878 56.2796C35.2563 53.1596 36.4282 47.7048 40.8954 45.0697C44.4098 42.9965 49.5541 42.9645 53.2167 44.9928C54.3999 45.6481 55.9329 47.216 56.5489 48.4008C57.5609 50.3467 58.0648 52.6493 58.2009 55.9493L58.2839 57.9599H60.4556L60.7307 56.4767C62.2043 48.5311 62.3064 47.3119 61.6167 45.8956C61.12 44.8758 59.6577 43.4067 58.441 42.7046C56.4454 41.5531 53.4187 40.6081 50.505 40.2263C48.6092 39.978 44.3806 39.9842 42.7423 40.2377Z" fill="#017991"/>
<path fill-rule="evenodd" clip-rule="evenodd" d="M90.6468 42.0391C89.0601 44.5298 60.3263 90.7074 60.2671 90.862C60.2045 91.0253 60.4885 91.053 62.1531 91.048L64.1132 91.0414L72.688 77.3491L92.6525 77.3419L93.1318 79.4184C94.1101 83.655 94.7644 85.3037 96.1609 87.0477C98.64 90.1452 102.245 91.4841 107.515 91.2654C108.603 91.2201 109.731 91.1385 110.022 91.0838L110.549 90.9839L110.7 89.9973C110.782 89.4548 110.841 89.0056 110.831 88.9998C110.821 88.994 110.411 88.8832 109.919 88.7533C107.808 88.197 106.164 86.4519 105.051 83.5872C104.757 82.8296 97.0335 51.5642 94.9024 42.5007L94.6309 41.347H91.0875L90.6468 42.0391ZM89.4161 64.1898C90.7038 69.4291 91.7551 73.7601 91.7537 73.8148C91.7523 73.8695 87.976 73.914 83.363 73.914C78.7492 73.914 74.9943 73.8637 75.0191 73.8032C75.127 73.5319 86.9429 54.6669 87.0057 54.6655C87.0444 54.6645 88.1291 58.9504 89.4161 64.1898Z" fill="#017991"/>
<path d="M117.376 41.5469C114.976 42.0678 113.249 43.69 112.536 46.0935C112.318 46.8277 111.143 53.1845 111.143 53.6307C111.143 53.8472 111.264 53.8723 112.297 53.8703L113.451 53.8679L113.817 52.3869C114.838 48.2509 117.064 45.964 120.905 45.1059C121.63 44.944 122.82 44.8658 125.357 44.8135C128.499 44.7486 128.82 44.7616 128.82 44.9567C128.82 45.0749 127.009 55.4754 124.797 68.0691C122.583 80.6624 120.773 90.9867 120.773 91.01C120.773 91.0349 122.998 91.0538 125.717 91.0538H130.662L130.731 90.7579C130.77 90.5944 132.58 80.3153 134.754 67.9147C136.928 55.5142 138.74 45.2349 138.779 45.0717L138.851 44.7749H146.698C151.013 44.7749 154.544 44.7554 154.544 44.7315C154.544 44.7075 154.662 44.04 154.806 43.248C154.95 42.4563 155.069 41.7045 155.07 41.5776C155.072 41.3589 154.111 41.3474 136.636 41.3575C121.631 41.3659 118.047 41.4013 117.376 41.5469Z" fill="#017991"/>
<path d="M39.9721 98.0946C38.3674 98.6021 37.6636 99.4699 37.6636 100.941C37.6636 101.947 37.8776 102.464 38.5442 103.065C38.9951 103.472 41.0255 104.371 41.4924 104.371C41.7985 104.371 43.0394 105.03 43.3331 105.349C43.8291 105.888 43.789 106.656 43.2392 107.147C42.1318 108.136 39.9074 107.893 38.2979 106.606C38.0299 106.392 37.7582 106.217 37.6938 106.217C37.6293 106.217 37.4376 106.514 37.2676 106.876L36.9585 107.536L37.2753 107.873C37.7248 108.351 39.3031 109.093 40.2359 109.265C41.9229 109.575 43.6875 109.168 44.5964 108.261C45.2877 107.569 45.4895 106.974 45.4241 105.817C45.3397 104.325 44.6578 103.694 42.2808 102.905C41.5914 102.676 40.8197 102.384 40.5658 102.256C38.7039 101.318 39.3019 99.4924 41.4712 99.4924C42.1851 99.4924 43.6512 99.8979 44.0635 100.209C44.4508 100.502 44.6254 100.46 44.8525 100.021C45.3719 99.0171 45.3689 98.9974 44.654 98.6349C43.2908 97.9444 41.2078 97.7037 39.9721 98.0946Z" fill="#00996B"/>
<path d="M46.3701 99.4924H49.9319V109.249H51.515V99.4924H55.077V98.0421H46.3701V99.4924Z" fill="#00996B"/>
<path fill-rule="evenodd" clip-rule="evenodd" d="M56.6597 109.249H58.3747V105.822H61.6279L63.7254 109.184L64.6778 109.223C65.2018 109.244 65.6303 109.233 65.6303 109.198C65.6303 109.163 65.0723 108.314 64.3902 107.311L63.15 105.488L63.8009 105.125C65.8778 103.966 66.0667 100.176 64.1145 98.8341C63.1339 98.1595 62.4345 98.0421 59.406 98.0421H56.6597V109.249ZM62.6256 99.8527C64.3797 100.644 64.3245 103.179 62.5356 103.991C62.1024 104.188 61.6624 104.233 60.1886 104.236L58.3747 104.239V99.4626L60.1886 99.5173C61.6783 99.5617 62.1139 99.6214 62.6256 99.8527Z" fill="#00996B"/>
<path fill-rule="evenodd" clip-rule="evenodd" d="M68.9598 103.549C67.6347 106.576 66.5514 109.096 66.5522 109.15C66.5531 109.205 66.9333 109.249 67.3969 109.249H68.2399L69.3534 106.612H75.0754L76.1573 109.184L78.0191 109.26L76.9626 106.849C76.382 105.522 75.2782 102.998 74.5091 101.24L73.1121 98.0421L71.3691 98.0465L68.9598 103.549ZM73.3338 102.57C73.8854 103.864 74.3369 104.947 74.3369 104.977C74.3369 105.006 73.3872 105.03 72.2266 105.03C71.0656 105.03 70.1158 104.988 70.1158 104.937C70.1158 104.688 72.1702 100.044 72.2447 100.125C72.292 100.176 72.7822 101.276 73.3338 102.57Z" fill="#00996B"/>
<path d="M79.4819 109.249H81.065V98.0421H79.4819V109.249Z" fill="#00996B"/>
<path d="M82.6479 99.4924H86.2095V109.249H87.7926V99.4924H91.3544V98.0421H82.6479V99.4924Z" fill="#00996B"/>
<path fill-rule="evenodd" clip-rule="evenodd" d="M100.281 98.465C100.179 98.7034 99.1028 101.154 97.8902 103.91C96.6769 106.665 95.6526 108.996 95.6139 109.091C95.5592 109.224 95.746 109.253 96.4426 109.223L97.3417 109.184L98.4294 106.678H104.177L105.26 109.249H106.157C106.65 109.249 107.05 109.205 107.045 109.15C107.041 109.096 105.954 106.589 104.631 103.58L102.225 98.1079L100.466 98.0305L100.281 98.465ZM102.489 102.723L103.463 104.964L102.428 105.003C101.859 105.023 100.889 105.023 100.271 105.003L99.1479 104.964L100.078 102.789C100.589 101.592 101.069 100.465 101.142 100.284C101.272 99.9679 101.283 99.9649 101.396 100.218C101.462 100.363 101.954 101.49 102.489 102.723Z" fill="#00996B"/>
<path fill-rule="evenodd" clip-rule="evenodd" d="M108.504 109.249H110.219V105.822H113.473L115.57 109.184L116.523 109.223C117.047 109.244 117.475 109.225 117.475 109.182C117.475 109.139 116.915 108.289 116.232 107.292L114.988 105.481L115.592 105.16C117.719 104.033 117.941 100.197 115.959 98.8341C114.978 98.1595 114.279 98.0421 111.25 98.0421H108.504V109.249ZM114.545 99.8702C116.228 100.739 116.13 103.197 114.38 103.991C113.947 104.188 113.507 104.233 112.033 104.236L110.219 104.239V99.4596L112.1 99.5187C113.709 99.5698 114.061 99.62 114.545 99.8702Z" fill="#00996B"/>
<path d="M119.85 109.249H127.897V107.799H121.565V104.371H126.973V102.789H121.565V99.4924H127.633V98.0421H119.85V109.249Z" fill="#00996B"/>
<path fill-rule="evenodd" clip-rule="evenodd" d="M131.137 103.415C129.84 106.37 128.752 108.892 128.719 109.018C128.665 109.221 128.763 109.249 129.512 109.249H130.367L131.428 106.678L137.197 106.611L138.273 109.184L139.154 109.223C139.637 109.244 140.034 109.214 140.035 109.157C140.037 109.098 138.956 106.574 137.634 103.547L135.231 98.0421H133.494L131.137 103.415ZM135.408 102.459C135.936 103.692 136.396 104.774 136.433 104.866C136.485 104.993 136.012 105.03 134.325 105.03H132.149L133.214 102.524C133.801 101.146 134.319 100.063 134.366 100.118C134.412 100.173 134.881 101.226 135.408 102.459Z" fill="#00996B"/>
<path d="M102.881 116.425C100.843 116.89 99.7987 118.08 99.8024 119.929C99.806 121.914 100.609 122.603 104.087 123.607C105.014 123.874 105.602 124.262 105.602 124.606C105.602 124.913 104.938 125.335 104.453 125.335C103.753 125.335 102.065 124.714 101.204 124.139C100.777 123.854 100.384 123.621 100.33 123.621C100.276 123.621 99.9621 124.2 99.6324 124.907L99.0312 126.192L99.3712 126.479C99.8644 126.895 101.207 127.522 102.184 127.793C103.47 128.149 105.693 128.111 106.708 127.716C108.273 127.105 109.074 125.982 109.062 124.418C109.053 123.35 108.889 122.905 108.266 122.259C107.651 121.62 107.184 121.381 105.516 120.853C103.765 120.299 103.33 120.036 103.384 119.566C103.414 119.315 103.532 119.171 103.786 119.083C104.273 118.913 105.781 119.281 106.988 119.864C107.495 120.109 107.93 120.255 107.954 120.188C107.978 120.121 108.26 119.527 108.58 118.868C108.901 118.209 109.164 117.641 109.164 117.606C109.164 117.479 107.495 116.77 106.724 116.57C105.571 116.271 103.844 116.206 102.881 116.425Z" fill="#017991"/>
<path d="M52.7021 119.27H55.8682V127.84H59.298V119.27H62.5962V116.501H52.7021V119.27Z" fill="#017991"/>
<path fill-rule="evenodd" clip-rule="evenodd" d="M63.3877 127.84H66.8175V124.808H68.4959L69.9177 127.839L71.8635 127.84C72.9337 127.84 73.8094 127.811 73.8094 127.775C73.8094 127.74 73.3309 126.932 72.7462 125.982L71.6833 124.253L72.2772 123.667C73.0828 122.873 73.414 121.965 73.4126 120.551C73.4104 118.961 72.8622 117.92 71.6231 117.154C70.8179 116.657 69.6024 116.506 66.3888 116.503L63.3877 116.501V127.84ZM69.73 119.655C70.1024 120.027 70.1765 120.283 70.1167 120.984C70.0416 121.869 69.488 122.17 67.9455 122.17H66.8175V119.27H68.0811C69.3015 119.27 69.3575 119.283 69.73 119.655Z" fill="#017991"/>
<path fill-rule="evenodd" clip-rule="evenodd" d="M76.278 122.068C74.9897 125.134 73.9377 127.687 73.9385 127.741C73.9399 127.796 74.7285 127.84 75.6902 127.84H77.4396L77.7467 126.983L78.0545 126.126H82.4741L82.7178 126.931C82.8521 127.374 83.028 127.761 83.1083 127.792C83.1893 127.823 84.0347 127.832 84.9875 127.811L86.721 127.774L82.1561 116.567L78.62 116.494L76.278 122.068ZM80.8509 121.742C81.1325 122.522 81.3915 123.233 81.4259 123.325C81.4732 123.448 81.1917 123.489 80.2732 123.489C79.3576 123.489 79.0723 123.448 79.1168 123.325C79.7354 121.585 80.2214 120.326 80.2732 120.326C80.3096 120.326 80.5694 120.963 80.8509 121.742Z" fill="#017991"/>
<path d="M87.3975 127.84H90.5579L90.6293 121.9L95.0774 127.84H98.0825V116.501H94.9163V122.612L90.3653 116.512L87.3975 116.501V127.84Z" fill="#017991"/>
<path d="M114.441 116.501V119.27H117.739V127.84H121.169V119.27H124.335V116.501H114.441Z" fill="#017991"/>
<path d="M110.22 116.501V127.84H113.649V116.501H110.22Z" fill="#017991"/>
</svg>
